ModelForces
version=1
nRows=4
nColumns=155
inDegrees=no

This file contains the forces exerted on a model during a simulation.

A force is a generalized force, meaning that it can be either a force (N) or a torque (Nm).

Units are S.I. units (second, meters, Newtons, ...)
Angles are in degrees.

endheader
time	glut_med1_r	glut_med2_r	glut_med3_r	glut_min1_r	glut_min2_r	glut_min3_r	semimem_r	semiten_r	bifemlh_r	bifemsh_r	sar_r	add_long_r	add_brev_r	add_mag1_r	add_mag2_r	add_mag3_r	tfl_r	pect_r	grac_r	glut_max1_r	glut_max2_r	glut_max3_r	iliacus_r	psoas_r	quad_fem_r	gem_r	peri_r	rect_fem_r	vas_med_r	vas_int_r	vas_lat_r	med_gas_r	lat_gas_r	soleus_r	tib_post_r	flex_dig_r	flex_hal_r	tib_ant_r	per_brev_r	per_long_r	per_tert_r	ext_dig_r	ext_hal_r	glut_med1_l	glut_med2_l	glut_med3_l	glut_min1_l	glut_min2_l	glut_min3_l	semimem_l	semiten_l	bifemlh_l	bifemsh_l	sar_l	add_long_l	add_brev_l	add_mag1_l	add_mag2_l	add_mag3_l	tfl_l	pect_l	grac_l	glut_max1_l	glut_max2_l	glut_max3_l	iliacus_l	psoas_l	quad_fem_l	gem_l	peri_l	rect_fem_l	vas_med_l	vas_int_l	vas_lat_l	med_gas_l	lat_gas_l	soleus_l	tib_post_l	flex_dig_l	flex_hal_l	tib_ant_l	per_brev_l	per_long_l	per_tert_l	ext_dig_l	ext_hal_l	ercspn_r	ercspn_l	intobl_r	intobl_l	extobl_r	extobl_l	femur_lat_meniscii_r.femur_lat_r.force.X	femur_lat_meniscii_r.femur_lat_r.force.Y	femur_lat_meniscii_r.femur_lat_r.force.Z	femur_lat_meniscii_r.femur_lat_r.torque.X	femur_lat_meniscii_r.femur_lat_r.torque.Y	femur_lat_meniscii_r.femur_lat_r.torque.Z	femur_lat_meniscii_r.meniscus_lat_r.force.X	femur_lat_meniscii_r.meniscus_lat_r.force.Y	femur_lat_meniscii_r.meniscus_lat_r.force.Z	femur_lat_meniscii_r.meniscus_lat_r.torque.X	femur_lat_meniscii_r.meniscus_lat_r.torque.Y	femur_lat_meniscii_r.meniscus_lat_r.torque.Z	femur_med_meniscii_r.femur_med_r.force.X	femur_med_meniscii_r.femur_med_r.force.Y	femur_med_meniscii_r.femur_med_r.force.Z	femur_med_meniscii_r.femur_med_r.torque.X	femur_med_meniscii_r.femur_med_r.torque.Y	femur_med_meniscii_r.femur_med_r.torque.Z	femur_med_meniscii_r.meniscus_med_r.force.X	femur_med_meniscii_r.meniscus_med_r.force.Y	femur_med_meniscii_r.meniscus_med_r.force.Z	femur_med_meniscii_r.meniscus_med_r.torque.X	femur_med_meniscii_r.meniscus_med_r.torque.Y	femur_med_meniscii_r.meniscus_med_r.torque.Z	femur_med_tibia_r.tibia_upper_r.force.X	femur_med_tibia_r.tibia_upper_r.force.Y	femur_med_tibia_r.tibia_upper_r.force.Z	femur_med_tibia_r.tibia_upper_r.torque.X	femur_med_tibia_r.tibia_upper_r.torque.Y	femur_med_tibia_r.tibia_upper_r.torque.Z	femur_med_tibia_r.femur_med_r.force.X	femur_med_tibia_r.femur_med_r.force.Y	femur_med_tibia_r.femur_med_r.force.Z	femur_med_tibia_r.femur_med_r.torque.X	femur_med_tibia_r.femur_med_r.torque.Y	femur_med_tibia_r.femur_med_r.torque.Z	femur_lat_tibia_r.tibia_upper_r.force.X	femur_lat_tibia_r.tibia_upper_r.force.Y	femur_lat_tibia_r.tibia_upper_r.force.Z	femur_lat_tibia_r.tibia_upper_r.torque.X	femur_lat_tibia_r.tibia_upper_r.torque.Y	femur_lat_tibia_r.tibia_upper_r.torque.Z	femur_lat_tibia_r.femur_lat_r.force.X	femur_lat_tibia_r.femur_lat_r.force.Y	femur_lat_tibia_r.femur_lat_r.force.Z	femur_lat_tibia_r.femur_lat_r.torque.X	femur_lat_tibia_r.femur_lat_r.torque.Y	femur_lat_tibia_r.femur_lat_r.torque.Z	aACL_R	pACL_R	aPCL_R	pPCL_R	aMCL_R	mMCL_R	pMCL_R	aLCL_R	mLCL_R	pLCL_R	aPCL_L	pPCL_L	aMCL_L	aLCL_L
      0.16368945	     11.47196081	      8.37580859	      9.00897589	      3.86665603	      4.49356324	      4.86639462	      0.00000000	    167.62796350	    134.87494467	    292.21134949	    131.25571968	      8.33640113	      6.00116767	      3.16297367	      3.65262272	      6.15854315	      5.00856430	      3.26385335	    100.72637436	      5.40821470	      8.22734209	      6.18306941	     27.60276435	     18.59259281	      5.31746445	      3.66516431	      6.25077429	     53.15616620	     31.22604347	     33.30215486	     44.89261224	      0.00000000	      0.00000000	      0.00000000	      0.00000000	      0.00000000	      0.00000000	     34.01985668	      2.42805751	      2.95833381	     22.28254202	     41.83487515	     10.73327713	     11.47196081	      8.37580859	      9.00897589	      3.86665603	      4.49356324	      4.86639462	      0.00000000	      6.20827533	     12.25536310	     10.58376913	      2.20618876	      8.33640113	      6.00116767	      3.16297367	      3.65262272	      6.15854315	      5.43993440	      3.26385335	      2.27763102	      5.40821470	      8.22734209	      6.18306941	     27.60276435	     18.59259281	      5.31746445	      3.66516431	      6.25077429	     17.07837387	      0.00000000	      0.00000000	      0.00000000	     21.18981054	     10.01433823	     50.95199040	     51.06024575	      5.46795546	      4.89238141	     13.28652459	      7.10896201	     18.23521942	      2.87464561	      8.86674101	      2.78493844	     36.39591265	     36.39591265	     13.52715965	     13.52715965	     30.88616318	     30.88616318	     90.60017881	    173.59923325	     19.43223452	    -12.04665099	      2.18402461	     35.30274132	    -90.60017881	   -173.59923325	    -19.43223452	      4.80638875	     -2.71783982	      3.22288286	     22.55201905	     20.73731782	     11.73012917	     -4.26000522	     -0.52014911	      9.05865676	    -22.55201905	    -20.73731782	    -11.73012917	     -0.23753396	      0.24647618	      0.07200413	   -761.90974524	   -700.49826311	    221.48287511	    -16.22747847	     17.19747714	     -1.45616735	    761.90974524	    700.49826311	   -221.48287511	    102.79802510	    -13.82476936	    309.92931246	      0.00000000	      0.00000000	      0.00000000	      0.00000000	      0.00000000	      0.00000000	      0.00000000	      0.00000000	      0.00000000	      0.00000000	      0.00000000	      0.00000000	     -3.95192950	      0.00000000	    571.82713678	    372.95234139	      0.00000000	      0.00000000	      0.00000000	      0.00000000	      0.00000000	      0.00000000	      0.00000000	      0.00000000	      0.00000001	      0.00000000
      0.16435661	     11.43959521	      8.35205426	      8.98312067	      3.85613828	      4.48205350	      4.85169710	      0.00000000	    167.70569568	    135.02930587	    292.45694947	    131.20812058	      8.31248724	      5.98499555	      3.39034962	      3.64207624	      6.13943391	      4.98622320	      3.25491188	    100.67008240	      5.39281501	      8.20386258	      6.16515134	     27.55898246	     18.54266228	      5.30268601	      3.65794219	      6.24384881	     53.69357183	     30.63739718	     33.16292163	     44.84720731	      0.00000000	      0.00000000	      0.00000000	      0.00000000	      0.00000000	      0.00000000	     34.12566709	      2.40826389	      2.96236623	     24.53952814	     40.79435190	     10.38206328	     11.43959521	      8.35205426	      8.98312067	      3.85613828	      4.48205350	      4.85169710	      0.00000000	      6.18955789	     12.21927787	     10.55432045	      2.20021566	      8.31248724	      5.98499555	      3.39034962	      3.64207624	      6.13943391	      5.42816195	      3.25491188	      2.27135626	      5.39281501	      8.20386258	      6.16515134	     27.55898246	     18.54266228	      5.30268601	      3.65794219	      6.24384881	     17.02321691	      0.00000000	      0.00000000	      0.00000000	     21.17414694	     10.00457729	     50.82064166	     50.99040354	      5.45305203	      4.87889512	     13.24605995	      7.08603129	     18.19247289	      2.86695410	      8.83686026	      2.77596836	     36.29668973	     36.29668973	     13.48732499	     13.48732499	     30.85004272	     30.85004272	     92.76993871	    173.26042066	     18.84468669	    -11.79001550	      2.23413527	     36.17930963	    -92.76993871	   -173.26042066	    -18.84468669	      4.77616092	     -2.76260359	      3.20778736	     22.61526633	     20.22649265	     11.42757571	     -4.15013414	     -0.51770670	      9.08015228	    -22.61526633	    -20.22649265	    -11.42757571	     -0.23226305	      0.24844515	      0.06923329	   -768.85426531	   -698.58224044	    221.89205779	    -16.14713454	     17.32542328	     -1.42312788	    768.85426531	    698.58224044	   -221.89205779	    102.90235381	    -13.93580087	    312.70083236	      0.00000000	      0.00000000	      0.00000000	      0.00000000	      0.00000000	      0.00000000	      0.00000000	      0.00000000	      0.00000000	      0.00000000	      0.00000000	      0.00000000	     -3.94007918	      0.00000000	    578.66133862	    376.16242540	      0.00000000	      0.00000000	      0.00000000	      0.00000000	      0.00000000	      0.00000000	      0.00000000	      0.00000000	      0.00000001	      0.00000000
      0.16465271	     11.42528321	      8.34157962	      8.97171981	      3.85150010	      4.47697816	      4.84521552	      0.00000000	    167.72333187	    135.10510290	    292.55410521	    131.17590094	      8.30194242	      5.97786375	      3.47235298	      3.63742572	      6.13100744	      4.97583315	      3.25096889	    100.63495231	      5.38602462	      8.19350944	      6.15725055	     27.53967834	     18.52064743	      5.29616917	      3.65475803	      6.24071687	     53.95922275	     31.13417837	     33.25220876	     44.85185432	      0.00000000	      0.00000000	      0.00000000	      0.00000000	      0.00000000	      0.00000000	     34.17342304	      2.39889942	      2.96353325	     24.50484355	     42.20132923	     10.79912667	     11.42528321	      8.34157962	      8.97171981	      3.85150010	      4.47697816	      4.84521552	      0.00000000	      6.18130456	     12.20332236	     10.54133456	      2.19758159	      8.30194242	      5.97786375	      3.47235298	      3.63742572	      6.13100744	      5.42297021	      3.25096889	      2.26858924	      5.38602462	      8.19350944	      6.15725055	     27.53967834	     18.52064743	      5.29616917	      3.65475803	      6.24071687	     16.99888604	      0.00000000	      0.00000000	      0.00000000	     21.16701849	     10.00016815	     50.76238233	     50.95955215	      5.44639470	      4.87284893	     13.22819123	      7.07590862	     18.17356720	      2.86356279	      8.82384942	      2.77208086	     36.25293403	     36.25293403	     13.46976014	     13.46976014	     30.83411704	     30.83411704	     94.92240795	    169.39650643	     17.06531595	    -10.93001875	      2.27502747	     37.10273171	    -94.92240795	   -169.39650643	    -17.06531595	      4.59753379	     -2.77161011	      3.04970900	     22.75905540	     20.19630602	     11.35169984	     -4.12000700	     -0.51980816	      9.13541424	    -22.75905540	    -20.19630602	    -11.35169984	     -0.23353305	      0.25115058	      0.07099108	   -772.27670177	   -698.48142910	    222.59140811	    -16.13062097	     17.40080908	     -1.39260401	    772.27670177	    698.48142910	   -222.59140811	    103.16895416	    -13.99355061	    314.06228089	      0.00000000	      0.00000000	      0.00000000	      0.00000000	      0.00000000	      0.00000000	      0.00000000	      0.00000000	      0.00000000	      0.00000000	      0.00000000	      0.00000000	     -4.03054249	      0.00000000	    581.70807262	    377.68010172	      0.00000000	      0.00000000	      0.00000000	      0.00000000	      0.00000000	      0.00000000	      0.00000000	      0.00000000	      0.00000001	      0.00000000
      0.16511878	     11.40282285	      8.32517645	      8.95386644	      3.84423642	      4.46903019	      4.83506474	      0.00000000	    167.72636248	    135.22144745	    292.64913733	    131.11133733	      8.28542960	      5.96669474	      3.58262209	      3.63014310	      6.11781158	      4.95892334	      3.24479399	    100.56667414	      5.37539123	      8.17729695	      6.14487841	     27.50945059	     18.48617545	      5.28596367	      3.64977228	      6.23571598	     54.35347562	     31.14273980	     33.24441540	     44.82432096	      0.00000000	      0.00000000	      0.00000000	      0.00000000	      0.00000000	      0.00000000	     34.24776831	      2.38352191	      2.96461751	     29.91141500	     42.80377677	     10.97092813	     11.40282285	      8.32517645	      8.95386644	      3.84423642	      4.46903019	      4.83506474	      0.00000000	      6.16838029	     12.17828350	     10.52099848	      2.19345644	      8.28542960	      5.96669474	      3.58262209	      3.63014310	      6.11781158	      5.41483932	      3.24479399	      2.26425599	      5.37539123	      8.17729695	      6.14487841	     27.50945059	     18.48617545	      5.28596367	      3.64977228	      6.23571598	     16.96077324	      0.00000000	      0.00000000	      0.00000000	     21.15558089	      9.99313356	     50.67073322	     50.91117357	      5.43586120	      4.86325502	     13.20017821	      7.06004305	     18.14389236	      2.85825242	      8.80367974	      2.76607715	     36.18440995	     36.18440995	     13.44225446	     13.44225446	     30.80917996	     30.80917996	     98.29170735	    166.14128083	     16.70402550	    -10.68587284	      2.36272595	     38.52209943	    -98.29170735	   -166.14128083	    -16.70402550	      4.48805963	     -2.85919555	      2.88574793	     23.17492012	     20.18525688	     11.23047496	     -4.07036920	     -0.52901621	      9.30293977	    -23.17492012	    -20.18525688	    -11.23047496	     -0.23699144	      0.26107612	      0.06720517	   -777.95740966	   -698.83193570	    223.79890599	    -16.11843146	     17.52484580	     -1.33754063	    777.95740966	    698.83193570	   -223.79890599	    103.64444939	    -14.08793686	    316.32270822	      0.00000000	      0.00000000	      0.00000000	      0.00000000	      0.00000000	      0.00000000	      0.00000000	      0.00000000	      0.00000000	      0.00000000	      0.00000000	      0.00000000	     -4.23794931	      0.00000000	    586.58605412	    380.31948172	      0.00000000	      0.00000000	      0.00000000	      0.00000000	      0.00000000	      0.00000000	      0.00000000	      0.00000000	      0.00000001	      0.00000000
